<svg xmlns="http://www.w3.org/2000/svg" width="800" height="500" viewBox="0 0 800 500">
  <rect width="800" height="500" fill="#1a2530"/>
  <text x="20" y="30" fill="#e0e6ed" font-family="system-ui" font-size="18">SystemischesBrett – Familienaufstellung</text>
  <rect x="200" y="80" width="560" height="380" rx="8" fill="#e5d5b5" stroke="#c9b898"/>
  <path d="M 220 100 Q 480 250 740 420" stroke="#5c4a32" stroke-width="3" fill="none"/>
  <circle cx="320" cy="180" r="18" fill="#c9a66b"/>
  <rect x="308" y="198" width="24" height="40" rx="8" fill="#c9a66b"/>
  <text x="320" y="165" text-anchor="middle" fill="#fff" font-size="11">Vater</text>
  <circle cx="620" cy="200" r="18" fill="#e8d4b0"/>
  <rect x="608" y="218" width="24" height="40" rx="8" fill="#e8d4b0"/>
  <text x="620" y="185" text-anchor="middle" fill="#fff" font-size="11">Mutter</text>
  <circle cx="400" cy="320" r="14" fill="#d4b896"/>
  <rect x="390" y="334" width="20" height="32" rx="6" fill="#d4b896"/>
  <text x="400" y="305" text-anchor="middle" fill="#fff" font-size="11">Tochter</text>
  <rect x="500" y="360" width="28" height="16" fill="#c4a35a"/>
  <circle cx="514" cy="340" r="12" fill="#b8956a"/>
  <rect x="506" y="352" width="16" height="24" rx="5" fill="#b8956a"/>
  <text x="514" y="325" text-anchor="middle" fill="#fff" font-size="11">Sohn</text>
  <rect x="470" y="250" width="28" height="28" fill="#8b6914"/>
  <text x="484" y="240" text-anchor="middle" fill="#fff" font-size="11">Thema</text>
</svg>
